<svg xmlns="http://www.w3.org/2000/svg" width="18" height="13" viewBox="0 0 18 13">
    <path fill="#7E7E7E" fill-rule="nonzero" d="M9 8.667c.816.013 1.99-.989 2.58-1.402 4.666-3.26 5.02-3.544 6.097-4.357a.8.8 0 0 0 .323-.64v-.643C18 .728 17.244 0 16.312 0H1.687C.756 0 0 .728 0 1.625v.643c0 .25.12.484.323.64 1.076.81 1.431 1.097 6.097 4.357.59.413 1.764 1.415 2.58 1.402zM16.312 13c.932 0 1.688-.728 1.688-1.625V4.452c0-.166-.204-.264-.341-.16-.788.59-1.828 1.341-5.414 3.85-.714.501-1.99 1.622-3.245 1.611-1.248.007-2.5-1.09-3.241-1.611C2.173 5.633 1.129 4.885.34 4.296c-.14-.105-.341-.01-.341.16v6.919C0 12.272.756 13 1.687 13h14.625z"/>
</svg>
