<svg xmlns="http://www.w3.org/2000/svg" xmlns:xlink="http://www.w3.org/1999/xlink" width="144" height="39" viewBox="0 0 144 39">
    <defs>
        <path id="a" d="M.417.574h22.825v38.18H.417z"/>
        <path id="c" d="M.604.212h22.667v22.784H.604z"/>
        <path id="e" d="M0 .379h10.62v18.547H0z"/>
        <path id="g" d="M0 38.82h143.48V.606H0z"/>
    </defs>
    <g fill="none" fill-rule="evenodd">
        <g transform="translate(105.638 .032)">
            <mask id="b" fill="#fff">
                <use xlink:href="#a"/>
            </mask>
            <path fill="#F05822" d="M13.349 33.093a109.496 109.496 0 0 1 .07-1.004c.713-9.605 2.494-15.095 9.566-17.726a11.34 11.34 0 0 0 .257-2.397c0-6.292-5.109-11.392-11.413-11.392C5.697.574.695 5.404.431 11.46l-.014-.008V36.204a2.552 2.552 0 0 0 2.555 2.55h8.725a1.43 1.43 0 0 0 1.428-1.368 215.133 215.133 0 0 1 .224-4.293z" mask="url(#b)"/>
        </g>
        <g transform="translate(120.209 15.79)">
            <mask id="d" fill="#fff">
                <use xlink:href="#c"/>
            </mask>
            <path fill="#F6901E" d="M11.859.212c-.393 0-.78.02-1.163.06l-.017.001c-.036.004-.07.01-.107.013-.08.009-.161.019-.241.03l-.155.022a9.472 9.472 0 0 0-.229.037L9.79.402l-.226.045c-.05.01-.1.02-.151.032a6.278 6.278 0 0 0-.235.055l-.103.023-.073.02-.053.02-.018.006c-.101.04-.196.08-.294.121-.104.042-.21.083-.31.127-.107.046-.209.096-.312.144-.098.045-.198.09-.293.136-.101.05-.198.103-.296.155-.092.049-.186.096-.275.146-.096.054-.188.111-.28.167-.087.052-.175.102-.258.156-.091.057-.177.119-.265.179-.08.055-.164.109-.242.165-.086.063-.167.129-.25.193-.075.059-.153.116-.226.176-.08.068-.157.138-.236.208-.07.062-.142.121-.21.185-.076.073-.15.15-.223.224-.065.065-.131.128-.194.195-.073.078-.14.16-.211.241-.06.068-.121.135-.179.205-.068.083-.132.171-.198.257-.055.073-.112.142-.165.217-.065.09-.125.183-.187.276-.05.075-.103.149-.151.226-.06.096-.117.197-.175.296-.046.079-.095.155-.14.237-.057.104-.11.212-.165.32-.041.08-.086.16-.126.243-.056.117-.108.24-.162.36-.036.079-.073.155-.107.235-.058.138-.113.283-.168.426-.026.068-.055.133-.08.203a17.24 17.24 0 0 0-.228.662C1.245 11.04.883 15.443.605 21.851a1.1 1.1 0 0 0 1.1 1.145h11.079l-.026-.038c5.882-.458 10.513-5.365 10.513-11.354C23.27 5.312 18.16.212 11.859.212z" mask="url(#d)"/>
        </g>
        <g transform="translate(0 19.426)">
            <mask id="f" fill="#fff">
                <use xlink:href="#e"/>
            </mask>
            <path fill="#4A494A" d="M4.83.379v14.464h5.79v4.083H0V.38z" mask="url(#f)"/>
        </g>
        <path fill="#4A494A" d="M16.904 31.981c0 .427.078.817.234 1.169.156.352.361.66.616.922.255.263.558.467.912.615.353.148.728.222 1.122.222a2.89 2.89 0 0 0 1.12-.222 2.72 2.72 0 0 0 .912-.615c.255-.262.46-.57.616-.922.156-.352.235-.734.235-1.144 0-.393-.079-.767-.235-1.12a3.153 3.153 0 0 0-.616-.922 2.73 2.73 0 0 0-.911-.615 2.889 2.889 0 0 0-1.121-.221c-.394 0-.769.074-1.122.221a2.714 2.714 0 0 0-.912.615c-.255.263-.46.566-.616.91a2.65 2.65 0 0 0-.234 1.107m-4.706-.049c0-.934.188-1.808.566-2.62a6.423 6.423 0 0 1 1.578-2.115c.673-.598 1.474-1.07 2.402-1.415.928-.344 1.943-.517 3.044-.517 1.084 0 2.09.169 3.018.505a7.504 7.504 0 0 1 2.415 1.402 6.298 6.298 0 0 1 1.59 2.14c.377.829.566 1.743.566 2.743 0 1-.193 1.915-.58 2.743a6.508 6.508 0 0 1-1.589 2.14c-.673.599-1.482 1.062-2.427 1.39-.944.328-1.967.492-3.068.492-1.084 0-2.086-.164-3.006-.492a6.954 6.954 0 0 1-2.378-1.402 6.508 6.508 0 0 1-1.565-2.178c-.378-.844-.566-1.783-.566-2.816M39.476 29.816c-.772-.524-1.553-.787-2.34-.787-.428 0-.826.074-1.196.221-.37.148-.694.357-.973.628-.28.27-.497.59-.653.96a3.147 3.147 0 0 0-.234 1.242c0 .443.077.848.234 1.218.156.369.37.688.64.958.271.271.596.48.974.628.377.148.78.222 1.207.222.838 0 1.618-.287 2.341-.862v3.789c-1.1.475-2.143.713-3.13.713-.919 0-1.794-.156-2.624-.468a6.65 6.65 0 0 1-2.193-1.34 6.574 6.574 0 0 1-1.515-2.09c-.378-.813-.567-1.719-.567-2.72 0-1 .18-1.913.542-2.742a6.564 6.564 0 0 1 1.479-2.14 6.688 6.688 0 0 1 2.23-1.402 7.571 7.571 0 0 1 2.772-.504c1.084 0 2.086.23 3.006.689v3.787zM46.154 32.006a2.93 2.93 0 0 0 .826 2.066 2.7 2.7 0 0 0 .911.615c.353.148.735.221 1.146.221.394 0 .768-.073 1.122-.22.352-.148.656-.353.91-.616.256-.262.461-.565.617-.91a2.65 2.65 0 0 0 .234-1.107c0-.393-.078-.767-.234-1.12a3.13 3.13 0 0 0-.616-.922 2.713 2.713 0 0 0-.911-.614 2.878 2.878 0 0 0-1.122-.222c-.41 0-.793.074-1.146.222a2.707 2.707 0 0 0-.911.614 3.024 3.024 0 0 0-.604.898 2.698 2.698 0 0 0-.222 1.095zm5.618-6.273h4.486v12.62h-4.486V36.95c-.952 1.198-2.242 1.797-3.868 1.797-.92 0-1.766-.17-2.539-.505a6.117 6.117 0 0 1-2.02-1.415 6.504 6.504 0 0 1-1.343-2.14c-.32-.82-.48-1.713-.48-2.68 0-.903.155-1.76.468-2.571a6.58 6.58 0 0 1 1.306-2.128 6.158 6.158 0 0 1 1.996-1.44c.772-.352 1.626-.529 2.562-.529 1.577 0 2.883.55 3.918 1.648v-1.254z"/>
        <mask id="h" fill="#fff">
            <use xlink:href="#g"/>
        </mask>
        <path fill="#4A494A" d="M59.288 38.353h4.46V17.936h-4.46zM69.219 36.434h2.07c2.315 0 4.755-.566 4.755-3.395 0-2.877-2.76-3.296-5.027-3.296h-1.798v6.69zm0-8.461h.788c2.34 0 4.336-.271 4.336-3.149 0-2.804-1.774-3.1-4.312-3.1h-.812v6.249zm-2.07-8.167h3.055c3.375 0 6.21 1.23 6.21 5.018 0 1.5-.568 2.78-1.824 3.616 2.217.541 3.523 2.533 3.523 4.747 0 3.69-2.981 5.166-6.652 5.166h-4.313V19.806zM81.515 38.353h1.971V26.792h-1.971v11.56zm2.39-15.915c0 .787-.64 1.402-1.405 1.402a1.403 1.403 0 0 1-1.405-1.402c0-.763.64-1.402 1.405-1.402s1.405.64 1.405 1.402zM97.95 36.532v1.82H85.974l8.354-9.74h-6.801v-1.82h10.768l-8.328 9.74zM.948 13.273h-.7L.24 7h.7zM6.09 6.725L11 11.846l-.006-4.86.7-.002.008 6.56L6.793 8.43l.006 4.836h-.7zM19.688 8.198c-.25-.432-.551-.682-1.085-.681-.558 0-1.041.4-1.04.975 0 .54.56.79.984.98l.417.183c.818.357 1.51.764 1.512 1.763.001 1.099-.881 1.94-1.974 1.942-1.009.001-1.76-.647-1.961-1.621l.683-.192c.093.64.586 1.164 1.26 1.163.676 0 1.293-.517 1.292-1.225-.001-.732-.577-.981-1.16-1.247l-.384-.166c-.735-.332-1.369-.705-1.37-1.605-.001-.973.823-1.598 1.757-1.6.7 0 1.293.357 1.627.973l-.558.358zM27.004 13.241h-.7l-.007-5.626-1.518.002v-.649l3.752-.005v.65l-1.534.001zM33.805 13.232l-.7.001-.007-6.275h.7zM40.582 13.224h-.7l-.007-5.626-1.518.002v-.649l3.752-.004v.648l-1.534.002zM47.347 10.677c0 .466-.015.999.277 1.398.275.383.81.598 1.268.598.45 0 .942-.21 1.233-.56.333-.4.308-.949.307-1.44l-.005-3.737h.701l.004 3.928c.002.682-.048 1.223-.547 1.74a2.314 2.314 0 0 1-1.692.718c-.592 0-1.201-.223-1.627-.639-.551-.524-.618-1.098-.619-1.814l-.005-3.928h.7l.005 3.736zM57.878 13.202l-.7.001-.007-5.626-1.518.002v-.65l3.752-.004v.649l-1.534.002zM64.342 10.057c.002 1.414 1.154 2.595 2.58 2.593 1.425-.002 2.574-1.185 2.572-2.6a2.581 2.581 0 0 0-2.58-2.593 2.58 2.58 0 0 0-2.572 2.6m5.853 0c.002 1.806-1.48 3.24-3.273 3.243-1.792.002-3.278-1.428-3.28-3.234-.003-1.798 1.48-3.256 3.272-3.258 1.792-.003 3.279 1.452 3.281 3.25" mask="url(#h)"/>
    </g>
</svg>
