<svg xmlns="http://www.w3.org/2000/svg" xmlns:xlink="http://www.w3.org/1999/xlink" width="31" height="31" viewBox="0 0 31 31">
    <defs>
        <path id="a" d="M.333.46h18.228v30.543H.333z"/>
        <path id="c" d="M12.119 10.776h18.102v18.227H12.119z"/>
    </defs>
    <g fill="none" fill-rule="evenodd">
        <g>
            <mask id="b" fill="#fff">
                <use xlink:href="#a"/>
            </mask>
            <path fill="#5679B9" d="M10.66 26.474c.016-.232.031-.462.048-.69l.008-.113c.57-7.683 1.993-12.076 7.64-14.18A9.114 9.114 0 0 0 .344 9.17l-.01-.008v19.801a2.04 2.04 0 0 0 2.04 2.04H9.34c.612 0 1.115-.484 1.14-1.094a172.403 172.403 0 0 1 .18-3.435z" mask="url(#b)"/>
        </g>
        <path fill="#81C4FB" d="M21.107 12.776c-.314 0-.624.016-.929.048h-.013c-.029.003-.057.008-.085.01a6.353 6.353 0 0 0-.193.025l-.124.017-.183.03-.125.022-.18.036-.121.025a5.006 5.006 0 0 0-.188.044l-.082.019-.058.015-.043.017-.014.005c-.081.03-.157.064-.235.096-.083.034-.167.067-.247.102-.086.037-.167.077-.25.115-.078.036-.158.072-.234.11-.08.04-.158.082-.236.123-.074.039-.149.076-.22.117-.077.043-.15.089-.224.133-.069.042-.14.082-.206.125-.072.046-.14.095-.211.143-.064.044-.13.087-.193.132-.069.05-.133.103-.2.155-.06.047-.122.092-.18.14-.065.054-.126.11-.189.166-.055.05-.113.098-.167.149-.062.058-.12.12-.179.18-.051.051-.105.102-.155.155-.058.062-.112.128-.168.193-.048.054-.097.107-.143.164-.054.067-.106.137-.158.206-.044.057-.09.113-.132.173-.052.072-.1.147-.15.221-.04.06-.082.119-.12.18-.048.077-.093.158-.14.237-.037.063-.076.125-.111.19-.046.083-.089.17-.132.256-.033.064-.069.128-.1.194-.046.094-.087.192-.13.288-.029.063-.058.125-.085.189-.047.11-.09.225-.135.34-.02.055-.043.107-.064.162-.063.172-.124.349-.182.53-.863 2.685-1.152 6.207-1.373 11.334a.88.88 0 0 0 .878.916h8.848l-.021-.03a9.114 9.114 0 0 0-.718-18.197z"/>
    </g>
</svg>
