<svg xmlns="http://www.w3.org/2000/svg" width="22" height="22" viewBox="0 0 22 22">
    <path fill="#2777B5" fill-rule="nonzero" d="M19.997 21.525c.84 0 1.528-.693 1.528-1.542V1.678c0-.85-.688-1.542-1.528-1.542H1.659C.819.136.136.828.136 1.678v18.305c0 .85.683 1.542 1.523 1.542h18.338zM5.015 6.868a1.839 1.839 0 0 1 0-3.677c1.012 0 1.838.826 1.838 1.838a1.836 1.836 0 0 1-1.838 1.839zm6.746 11.601h-3.17V8.262h3.041v1.394h.043c.425-.802 1.461-1.647 3.003-1.647 3.209 0 3.805 2.115 3.805 4.865v5.595h-3.17v-4.965c0-1.184-.024-2.707-1.647-2.707-1.652 0-1.905 1.289-1.905 2.62v5.052zm-5.156 0H3.43V8.262h3.175v10.207z"/>
</svg>
