<svg xmlns="http://www.w3.org/2000/svg" width="22" height="22" viewBox="0 0 22 22">
    <path fill="#1E6FF6" fill-rule="nonzero" d="M11 22c6.075 0 11-4.925 11-11S17.075 0 11 0 0 4.925 0 11s4.925 11 11 11zm0-2.129v-1.214c.075-.56-.339-1.609-1.004-2.274a1.42 1.42 0 0 1-.415-1.003v-1.42c0-.516-.278-.991-.73-1.24a73.14 73.14 0 0 0-2.165-1.159 6.395 6.395 0 0 1-1.404-.965l-.036-.032a6.118 6.118 0 0 1-.8-.92C4.028 9.035 3.35 8.03 2.91 7.377a8.92 8.92 0 0 1 4.577-4.52l1.065.534a.71.71 0 0 0 1.028-.635v-.501a8.87 8.87 0 0 1 1.081-.108l1.256 1.256a.71.71 0 0 1 0 1.003l-.208.208-.459.459a.355.355 0 0 0 0 .501l.208.208a.355.355 0 0 1 0 .502l-.355.355a.412.412 0 0 1-.185.095l-.066.009h-.399a.355.355 0 0 0-.247.1l-.44.428a.407.407 0 0 0-.107.255c0 .046.016.117.037.158l.691 1.384a.355.355 0 0 1-.317.513h-.25a.355.355 0 0 1-.232-.087l-.412-.357a.823.823 0 0 0-.466-.174.85.85 0 0 0-.224.036l-1.382.461a.572.572 0 0 0-.353.412l-.01.091c0 .201.114.384.294.474l.491.246c.417.209.878.318 1.344.318.467 0 1.002 1.21 1.42 1.419h2.96c.377 0 .738.15 1.004.416l.607.607c.188.187.345.529.386.817l.01.14c0 .473-.272 1.128-.608 1.462l-.502.5a1.06 1.06 0 0 0-.273.476c-.067.25-.121.504-.212.748l-.771 2.078A8.864 8.864 0 0 1 11 19.87zm8.79-7.738l-1.294-.324a1.065 1.065 0 0 1-.628-.442l-.797-1.196a1.248 1.248 0 0 1-.18-.59c0-.178.081-.443.18-.59l.869-1.304c.103-.154.244-.279.41-.361l.575-.288c.6 1.194.946 2.537.946 3.962 0 .385-.033.761-.08 1.133z"/>
</svg>
