<svg xmlns="http://www.w3.org/2000/svg" width="18" height="18" viewBox="0 0 18 18">
    <path fill="#000" fill-rule="nonzero" d="M16.313 18c.37 0 .739-.293.822-.654l.844-3.656c.011-.052.02-.135.02-.188 0-.309-.23-.66-.513-.783l-3.937-1.687a1.006 1.006 0 0 0-.331-.068.956.956 0 0 0-.654.31l-1.743 2.13c-2.337-1.101-5.128-3.892-6.23-6.229l2.13-1.743a.954.954 0 0 0 .311-.653c0-.096-.03-.244-.068-.332L5.277.51A.921.921 0 0 0 4.498 0c-.052 0-.137.01-.188.021L.654.865a.89.89 0 0 0-.645.711L0 1.687C0 10.705 7.309 18 16.312 18h.001z" opacity=".301"/>
</svg>
