<svg xmlns="http://www.w3.org/2000/svg" width="22" height="22" viewBox="0 0 22 22">
    <defs>
        <linearGradient id="a" x1="0%" y1="81.536%" y2=".022%">
            <stop offset="0%" stop-color="#F79A4A"/>
            <stop offset="100%" stop-color="#C72E8F"/>
        </linearGradient>
    </defs>
    <path fill="url(#a)" fill-rule="nonzero" d="M15.114 21.32c1.714-.08 3.232-.472 4.483-1.727 1.251-1.251 1.643-2.77 1.729-4.484.1-1.766.1-7.056 0-8.822-.082-1.714-.473-3.233-1.729-4.484C18.347.553 16.828.161 15.114.075c-1.766-.1-7.061-.1-8.827 0C4.577.156 3.059.548 1.803 1.8.548 3.049.161 4.568.075 6.282c-.1 1.766-.1 7.061 0 8.827.081 1.714.473 3.233 1.728 4.484 1.256 1.25 2.77 1.642 4.484 1.728 1.766.1 7.06.1 8.827 0zm-4.411-1.852c-1.557 0-4.903.125-6.307-.43a3.61 3.61 0 0 1-2.034-2.033c-.559-1.409-.43-4.75-.43-6.307 0-1.556-.124-4.903.43-6.307a3.61 3.61 0 0 1 2.034-2.034c1.408-.558 4.75-.43 6.307-.43 1.556 0 4.903-.124 6.307.43a3.61 3.61 0 0 1 2.033 2.034c.559 1.409.43 4.75.43 6.307 0 1.556.129 4.903-.43 6.307a3.61 3.61 0 0 1-2.033 2.034c-1.409.558-4.75.43-6.307.43zm5.71-13.2a1.28 1.28 0 1 0 0-2.559 1.28 1.28 0 0 0 0 2.558zm-5.71 9.916a5.477 5.477 0 0 0 5.485-5.486 5.477 5.477 0 0 0-5.485-5.486 5.477 5.477 0 0 0-5.486 5.486 5.477 5.477 0 0 0 5.486 5.486zm0-1.92a3.573 3.573 0 0 1-3.567-3.566 3.57 3.57 0 0 1 3.567-3.566 3.57 3.57 0 0 1 3.566 3.566 3.573 3.573 0 0 1-3.566 3.566z" transform="translate(0 .111)"/>
</svg>
