<svg xmlns="http://www.w3.org/2000/svg" width="16" height="16" viewBox="0 0 16 16">
    <path fill="#7E7E7E" fill-rule="nonzero" d="M11.13 15.7c1.262-.06 2.38-.348 3.3-1.273.922-.92 1.21-2.039 1.273-3.301.074-1.3.074-5.196 0-6.497-.06-1.262-.348-2.38-1.272-3.301C13.51.407 12.39.118 11.13.055c-1.301-.073-5.2-.073-6.5 0-1.26.06-2.377.348-3.302 1.27-.925.92-1.21 2.039-1.273 3.3-.073 1.301-.073 5.2 0 6.501.06 1.262.348 2.38 1.273 3.301.925.921 2.04 1.21 3.301 1.273 1.3.074 5.2.074 6.5 0zM7.88 14.336c-1.146 0-3.61.091-4.644-.317a2.659 2.659 0 0 1-1.498-1.497c-.411-1.037-.316-3.498-.316-4.644s-.091-3.61.316-4.645a2.659 2.659 0 0 1 1.498-1.497c1.037-.411 3.498-.317 4.644-.317s3.61-.091 4.644.317c.69.274 1.22.805 1.498 1.497.411 1.038.316 3.499.316 4.645 0 1.146.095 3.61-.316 4.644a2.659 2.659 0 0 1-1.498 1.497c-1.037.412-3.498.317-4.644.317zm4.205-9.72a.942.942 0 1 0 0-1.884.942.942 0 0 0 0 1.883zM7.88 11.916a4.033 4.033 0 0 0 4.04-4.04 4.033 4.033 0 0 0-4.04-4.039 4.033 4.033 0 0 0-4.04 4.04 4.033 4.033 0 0 0 4.04 4.04zm0-1.413a2.63 2.63 0 0 1-2.626-2.626A2.629 2.629 0 0 1 7.881 5.25a2.629 2.629 0 0 1 2.626 2.627 2.63 2.63 0 0 1-2.626 2.626z"/>
</svg>
