<svg xmlns="http://www.w3.org/2000/svg" width="24" height="20" viewBox="0 0 24 20">
    <path fill="#F05822" fill-rule="nonzero" d="M22 15.486c1.105 0 2-.921 2-2.057V2.457C24 1.321 23.105.4 22 .4H6c-1.105 0-2 .921-2 2.057V13.43c0 1.136.895 2.057 2 2.057h16zm-.25-2.057H6.25A.254.254 0 0 1 6 13.17V2.714c0-.142.112-.257.25-.257h15.5c.138 0 .25.115.25.257v10.457a.254.254 0 0 1-.25.258zM9.333 6.914c.92 0 1.667-.767 1.667-1.714s-.746-1.714-1.667-1.714c-.92 0-1.666.767-1.666 1.714s.746 1.714 1.666 1.714zM18 19.6c1.105 0 2-.921 2-2.057v-.686h-2v.429a.254.254 0 0 1-.25.257H2.25a.254.254 0 0 1-.25-.257V6.829c0-.142.112-.258.25-.258h.417V4.514H2c-1.105 0-2 .921-2 2.057v10.972C0 18.679.895 19.6 2 19.6h16zm2-8.229V7.943l-2.98-3.065a.49.49 0 0 0-.707 0L12 9.314l-1.646-1.693a.49.49 0 0 0-.708 0L8 9.314v2.057h12z"/>
</svg>
