<svg xmlns="http://www.w3.org/2000/svg" width="16" height="16" viewBox="0 0 16 16">
    <path fill="#7E7E7E" fill-rule="nonzero" d="M14.625 15.75c.619 0 1.125-.51 1.125-1.136V1.136C15.75.51 15.244 0 14.625 0H1.121A1.13 1.13 0 0 0 0 1.136v13.478a1.13 1.13 0 0 0 1.121 1.136h13.504zM3.593 4.957a1.354 1.354 0 0 1 0-2.707c.745 0 1.353.608 1.353 1.354 0 .748-.604 1.353-1.353 1.353zM8.561 13.5H6.226V5.984h2.24V7.01h.031c.313-.59 1.076-1.213 2.212-1.213 2.362 0 2.802 1.558 2.802 3.583v4.12h-2.335V9.844c0-.872-.017-1.994-1.213-1.994-1.216 0-1.402.95-1.402 1.93v3.72zm-3.797 0H2.426V5.984h2.338V13.5z"/>
</svg>
