<svg xmlns="http://www.w3.org/2000/svg" width="93" height="93" viewBox="0 0 93 93">
    <g fill="#F05822" fill-rule="nonzero">
        <path d="M46.58 86.739c22.455 0 40.659-18.204 40.659-40.659S69.035 5.421 46.58 5.421 5.921 23.625 5.921 46.08 24.125 86.739 46.58 86.739zm0 5.421C21.13 92.16.5 71.53.5 46.08S21.13 0 46.58 0s46.08 20.63 46.08 46.08-20.63 46.08-46.08 46.08z"/>
        <path d="M26.812 44.584a2.71 2.71 0 0 0-3.833 3.833l14.746 14.745a2.71 2.71 0 0 0 3.832 0l28.719-28.719a2.71 2.71 0 0 0-3.833-3.832l-26.802 26.8-12.83-12.83v.003z"/>
    </g>
</svg>
