<svg xmlns="http://www.w3.org/2000/svg" width="18" height="18" viewBox="0 0 18 18">
    <path fill="#7E7E7E" fill-rule="nonzero" d="M9 18a9 9 0 0 0 9-9 9 9 0 0 0-9-9 9 9 0 0 0-9 9 9 9 0 0 0 9 9zm0-1.742v-.994c.061-.458-.277-1.315-.821-1.86a1.161 1.161 0 0 1-.34-.82v-1.162c0-.423-.228-.811-.598-1.015a59.842 59.842 0 0 0-1.77-.948 5.232 5.232 0 0 1-1.15-.79l-.029-.025a5.006 5.006 0 0 1-.655-.753c-.34-.5-.895-1.322-1.255-1.856a7.297 7.297 0 0 1 3.745-3.698l.871.436a.58.58 0 0 0 .84-.519v-.41c.29-.047.586-.077.886-.088L9.75 2.783a.58.58 0 0 1 0 .821l-.17.17-.376.375a.29.29 0 0 0 0 .41l.17.171a.29.29 0 0 1 0 .41l-.29.29a.337.337 0 0 1-.152.08l-.053.006h-.326a.29.29 0 0 0-.203.082l-.36.35a.333.333 0 0 0-.088.209c0 .037.014.095.03.13L8.5 7.417a.29.29 0 0 1-.26.42h-.205a.29.29 0 0 1-.19-.07l-.337-.293a.673.673 0 0 0-.38-.142.696.696 0 0 0-.184.03l-1.131.376a.468.468 0 0 0-.289.337l-.008.075c0 .164.093.314.24.388l.402.2c.342.172.719.26 1.1.26.382 0 .82.991 1.162 1.162h2.422c.308 0 .603.122.821.34l.497.497c.154.153.282.433.316.669l.008.114c0 .387-.223.923-.498 1.196l-.41.41a.867.867 0 0 0-.224.388c-.055.206-.1.413-.173.613l-.631 1.7c-.5.109-1.016.17-1.548.17zm7.192-6.331l-1.059-.265a.871.871 0 0 1-.513-.362l-.653-.978a1.021 1.021 0 0 1-.146-.483c0-.146.065-.362.146-.483l.711-1.067a.87.87 0 0 1 .335-.295l.471-.236A7.2 7.2 0 0 1 16.258 9c0 .315-.027.623-.066.927z"/>
</svg>
